<svg width="110" height="25" viewBox="0 0 110 25" fill="none" xmlns="http://www.w3.org/2000/svg">
<g clip-path="url(#clip0_3404_6350)">
<path d="M9.42793 9.66635H3.40256V3.54895H0V18.529H3.40256V12.3505H9.42793V18.529H12.8305V3.54895H9.42793V9.66635Z" fill="white"/>
<path d="M20.3284 7.32288C17.6411 7.32288 15.5822 8.4737 15.3921 11.0711H18.2694C18.3951 10.1292 18.9396 9.52167 20.1383 9.52167C21.5238 9.52167 21.9233 10.2321 21.9233 11.534V11.9744H20.6828C17.3221 11.9744 14.9732 12.9388 14.9732 15.4944C14.9732 17.7993 16.6519 18.7604 18.6464 18.7604C20.367 18.7604 21.3337 18.0918 21.9652 17.211V18.5322H24.9263V11.3861C24.9263 8.41263 23.0156 7.32288 20.3251 7.32288H20.3284ZM21.9233 14.6972C21.9233 15.9123 20.8955 16.6452 19.5518 16.6452C18.4402 16.6452 17.9569 16.1213 17.9569 15.3272C17.9569 14.1539 18.9847 13.7778 20.7505 13.7778H21.9265V14.7004L21.9233 14.6972Z" fill="white"/>
<path d="M32.0666 14.1507L29.3986 7.57361H26.125L30.4909 17.42L28.5609 22.2579H31.4995L37.441 7.57361H34.5218L32.0666 14.1507Z" fill="white"/>
<path d="M44.1205 14.1507L41.4526 7.57361H38.1789L42.5449 17.42L40.6148 22.2579H43.5534L49.495 7.57361H46.5758L44.1205 14.1507Z" fill="white"/>
<path d="M55.4398 7.32288C52.7526 7.32288 50.6936 8.4737 50.5035 11.0711H53.3809C53.5066 10.1292 54.0511 9.52167 55.2497 9.52167C56.6352 9.52167 57.0348 10.2321 57.0348 11.534V11.9744H55.7943C52.4336 11.9744 50.0814 12.9388 50.0814 15.4944C50.0814 17.7993 51.7602 18.7604 53.7579 18.7604C55.4785 18.7604 56.4451 18.0918 57.0767 17.211V18.5322H60.0378V11.3861C60.0378 8.41263 58.1271 7.32288 55.4366 7.32288H55.4398ZM57.0348 14.6972C57.0348 15.9123 56.0069 16.6452 54.6633 16.6452C53.5517 16.6452 53.0683 16.1213 53.0683 15.3272C53.0683 14.1539 54.0962 13.7778 55.8619 13.7778H57.038V14.7004L57.0348 14.6972Z" fill="white"/>
<path d="M40.4473 4.2015C40.4473 3.9154 40.428 3.52644 40.3667 3.21783L39.1745 3.33999C39.2358 3.62609 39.2583 3.87361 39.2583 4.09864C39.2583 4.51011 39.1359 4.75442 38.8491 4.75442C38.5623 4.75442 38.4174 4.38474 38.4174 3.50393L37.2671 3.62609C37.2671 4.65155 37.1221 5.08231 36.7934 5.08231C36.5066 5.08231 36.4261 4.85728 36.4261 4.54868C36.4261 4.32366 36.468 4.03756 36.5485 3.75146L35.3789 3.85433C35.2758 4.2015 35.2339 4.61297 35.2339 4.94086C35.2339 6.10777 35.685 6.76355 36.4873 6.76355C37.1221 6.76355 37.5152 6.37458 37.6763 5.53235C37.8825 6.12705 38.2917 6.43244 38.949 6.43244C39.9156 6.43244 40.4473 5.65451 40.4473 4.19829V4.2015Z" fill="white"/>
<path d="M88.7694 9.80132C89.6716 9.80132 90.2742 9.34163 90.5158 8.66013C90.8155 9.06196 91.2569 9.29984 91.7982 9.29984C93.0613 9.29984 93.6638 8.61834 93.6638 7.51895C93.6638 7.02068 93.5446 6.43884 93.303 5.77985C92.8196 5.77985 92.3202 5.84092 91.7982 5.95986C91.9174 6.40027 92.0592 6.85995 92.0592 7.1782C92.0592 7.49645 91.94 7.69897 91.5598 7.69897C91.2795 7.69897 91.0765 7.49966 90.9798 7.07855L90.7994 6.30061L89.3172 6.561L89.4783 7.23928C89.4976 7.33893 89.517 7.45787 89.517 7.58003C89.517 7.89827 89.3978 8.20045 88.995 8.20045C88.473 8.20045 88.4537 7.84041 88.212 6.51921C87.6707 6.61886 87.1487 6.75709 86.6493 6.97889L86.8297 7.93685C87.0488 9.09732 87.632 9.79811 88.7727 9.79811L88.7694 9.80132Z" fill="#D5CC65"/>
<path d="M92.9614 20.5992C92.52 20.9399 91.9593 21.4382 91.4567 21.9204C90.954 21.4414 90.4127 20.9399 89.952 20.5992C89.2302 21.1585 88.2281 22.0586 87.6481 22.798C88.2281 23.5373 89.2334 24.4374 89.952 25C90.4127 24.6592 90.954 24.161 91.4567 23.682C91.9561 24.161 92.5168 24.6624 92.9614 25C93.7025 24.4406 94.6434 23.5405 95.2652 22.798C94.6434 22.0586 93.7025 21.1585 92.9614 20.5992Z" fill="#D5CC65"/>
<path d="M103.085 1.55908C103.047 1.03832 102.966 0.517552 102.805 0L96.8699 1.03832C96.9085 1.55908 96.9891 2.07985 97.1502 2.60062L103.082 1.55908H103.085Z" fill="#D5CC65"/>
<path d="M98.7741 4.0022C98.4132 4.60011 98.033 6.6221 97.8719 8.00117C104.548 8.00117 107.393 10.6018 107.393 14.1411C107.393 14.62 107.313 15.1215 107.194 15.6005C105.37 15.6005 103.884 15.5587 102.702 15.5008C103.443 14.5204 103.884 13.4596 103.884 12.402C103.884 10.4025 102.36 9.00091 99.8149 9.00091C97.4692 9.00091 96.1674 10.4796 96.1674 12.4405C96.1674 13.4596 96.4864 14.379 97.0084 15.2019H94.0602H93.9603C93.0387 15.2019 92.5554 14.7422 92.5554 13.2024V11.2029H88.8468V13.0031C88.8468 14.7422 88.3248 15.2019 87.4452 15.2019H87.3453H83.3337H70.6031C69.7009 15.2019 69.2015 14.8194 69.2015 13.2024V4.79942H65.4928V13.1992C65.4928 17.9986 67.0975 19.2009 70.6063 19.2009H88.5503C90.2355 19.2009 91.679 18.3811 92.2783 16.3013C92.6295 18.2943 93.4254 19.1559 94.8592 19.1976L94.8657 19.2041H95.3651C96.9504 19.2041 98.5937 18.6833 99.9985 17.8443C101.461 18.664 103.124 19.1848 104.59 19.4034C107.297 18.4036 108.299 17.5646 109.401 16.2048C109.762 15.0444 110 13.6042 110 12.6045C110 7.34539 105.309 4.00541 98.7741 4.00541V4.0022ZM99.8181 15.0797C98.9352 14.8194 98.5744 14.4207 98.5744 13.8807C98.5744 13.2603 98.9739 12.9999 99.918 12.9999C100.74 12.9999 101.281 13.2603 101.281 13.8807C101.281 14.4015 100.959 14.8611 99.8181 15.0797Z" fill="#D5CC65"/>
</g>
<defs>
<clipPath id="clip0_3404_6350">
<rect width="110" height="25" fill="white"/>
</clipPath>
</defs>
</svg>
