<svg width="99" height="117" viewBox="0 0 99 117" fill="none" xmlns="http://www.w3.org/2000/svg">
<path d="M56.4844 0L56.3143 0.680535L55.4636 0.340268L55.2935 2.21174H55.1233C54.9777 1.53291 54.7924 0.919743 54.1025 0.680535L54.6129 4.93388C52.9009 3.71981 51.3853 2.65698 49.1686 3.06241L51.8908 5.44428C50.194 4.49834 48.3988 5.05366 46.7868 5.78455V5.95468L50.1894 6.63522C48.5706 7.67218 46.341 6.97361 45.2556 9.01709C46.6993 9.01608 48.0813 8.47743 49.3388 9.35736C47.471 9.55267 45.9693 10.8874 45.2556 12.5899L46.7868 12.0795L46.1062 12.5899L45.766 13.951L49.1686 12.5899L49.3388 13.1003C48.1518 13.479 47.0515 14.3498 46.9569 15.6523C48.5958 15.0354 50.0305 13.7587 51.8908 13.951C50.6139 15.1421 49.6489 16.7863 49.5089 18.5446C50.5232 18.5186 51.5235 18.328 51.7206 17.1835C52.473 16.9705 52.8316 16.5556 53.0817 15.8224L53.5921 15.9926L54.6129 15.312C53.8478 17.6043 57.3369 18.5283 56.6545 15.6523H56.9948V15.312L56.4844 14.1211L57.1649 13.951L57.3351 21.607V36.7489L51.3804 38.6204C52.7076 39.4806 54.1971 38.3138 55.6337 38.3844C56.6173 38.4327 57.5496 38.9663 58.526 38.9794C59.669 38.9945 60.7597 38.2998 61.9287 38.388C64.7854 38.6037 69.2235 39.9071 70.7756 36.5788L67.4755 36.1359L67.2028 33.006L67.373 23.8187L68.0535 24.159C67.637 25.7065 68.8137 27.5127 69.5847 25.3499H69.925C70.4398 26.3309 71.3495 27.1396 72.477 27.2214L71.4562 24.3291L73.3277 25.5201C73.1031 24.1 72.014 23.053 70.6055 22.7979V22.6278C71.5077 22.6696 73.0507 23.781 73.6679 22.9681L74.3484 23.1382C74.1453 22.0915 73.3785 21.2657 72.3068 21.0966V20.9265L74.1783 20.5862L73.6679 19.7355L74.0082 19.3953L72.477 18.5446L72.9874 18.3745V18.2043L71.1159 17.5238L70.7756 16.8432V16.6731L71.1159 16.503V16.3328L70.6055 15.8224L71.286 15.4822V15.1419L68.734 15.312L69.0743 14.2912L67.5795 14.8158L66.6082 13.8249L63.63 12.4198V12.2496L68.0535 13.1003L67.8834 12.4198L69.0743 13.1003C68.8774 11.6788 67.6421 10.37 66.182 10.208L68.9042 9.35736L67.8834 8.33656L68.5639 8.16642L67.2028 6.80535H65.8418V6.63522L66.8626 6.46508V5.95468L64.1404 5.27415L64.821 4.93388L63.9703 4.42348L64.4807 3.40268H63.4599L64.821 1.87147C63.9449 1.8383 62.8209 1.76089 62.269 2.55201H61.2481L61.9287 0.850669C60.4499 0.961086 59.0623 2.27163 58.8663 3.74294H58.6961V0H57.8455L57.1649 2.55201H56.9948C56.9948 1.64043 57.144 0.704014 56.4844 0ZM31.9851 4.76375C32.226 6.94265 34.3007 9.30122 35.3152 11.2288C38.2042 16.7184 41.2278 22.2353 44.4049 27.5617H44.575C44.5736 25.3981 43.2129 23.7966 42.2212 21.9473C40.0871 17.967 37.6184 14.1657 35.4399 10.208C34.6009 8.68414 33.5388 5.59145 31.9851 4.76375ZM54.7831 4.93388V5.61442H54.6129L54.7831 4.93388ZM31.6449 5.61442C30.4366 7.91667 29.9083 10.7608 29.2809 13.2704C27.4448 20.6146 26.5015 28.5823 29.9599 35.558C30.3444 36.3338 30.1188 37.3595 30.6394 38.0566C31.9853 39.859 35.225 38.4295 36.919 38.4295C37.9691 38.4295 38.9569 38.9998 39.9814 39.003C41.0715 39.0066 42.1037 38.3577 43.214 38.4082C43.9493 38.4417 45.1554 39.0802 45.8259 38.6149C47.3225 37.5766 47.3026 34.694 48.5264 33.3641C49.4392 32.3719 51.4532 32.1194 51.8908 30.7942L45.0854 33.589L42.5334 32.532L34.8774 32.3254C37.4806 30.031 41.7685 31.3759 44.575 32.3254L44.4782 28.2422L42.1676 23.9889L37.2355 15.312L31.6449 5.61442ZM56.3143 13.7808L56.4844 14.1211H56.1441L56.3143 13.7808ZM54.7831 13.951L55.2935 14.2912L54.7831 14.9718V13.951ZM60.2273 15.6523V17.3536L59.3767 17.5238V13.951C60.6612 14.2188 59.9745 14.827 60.2273 15.6523ZM61.2481 14.0076C61.3797 14.0076 61.2753 14.0924 61.1915 14.0645L61.2481 14.0076ZM55.8039 14.1211L56.3143 14.2912L56.1441 14.9718L55.6337 14.8016L55.8039 14.1211ZM61.7585 23.8187L60.0572 27.0513C61.3169 27.2597 62.393 26.0419 62.9495 25.0097C63.5844 25.2834 63.7954 25.8515 64.3546 26.1807C65.701 26.9728 65.3411 24.4118 65.5015 23.8187H65.6716L65.8418 28.0721V36.2385H59.2065C59.3768 33.6266 59.2239 31.0275 59.2324 28.4123C59.2358 27.3832 58.9949 25.8163 59.3724 24.8581C59.6878 24.0571 60.9994 23.7742 61.7585 23.8187ZM84.2162 25.0097C76.3502 33.6542 67.7843 41.9593 58.6961 49.3053C56.4473 51.1232 54.1217 52.8555 51.7206 54.4707C51.051 54.9211 49.8607 56.0491 48.9985 55.8796C48.2006 55.7227 47.2844 54.9112 46.6166 54.4622C44.7489 53.2065 42.9759 51.8262 41.1723 50.4841C34.43 45.4666 28.3873 39.446 22.4576 33.5164C20.702 31.7608 18.9168 30.03 17.217 28.2201C16.2581 27.1991 15.2273 25.7765 13.951 25.1798C14.1114 28.9044 18.0571 32.0699 20.3439 34.7073C25.6476 40.8246 31.7985 46.2398 38.1099 51.2867C40.6199 53.2937 43.6015 56.1756 46.6166 57.3351V57.6754C45.3614 58.2007 42.9778 59.1196 42.1932 60.2274C42.7398 60.1726 45.9742 58.9265 45.3701 60.5615C45.0468 61.4363 43.856 61.7936 43.3841 62.6092L49.1686 59.4359L51.0401 60.3885L55.1233 62.7794C54.6551 61.8554 53.355 61.4942 53.0045 60.5544C52.4109 58.9624 55.761 60.199 56.3143 60.2274V60.0572L51.7206 57.6754C54.623 55.0422 58.1714 52.9786 61.2481 50.5291C67.2381 45.7602 72.9098 40.456 77.9868 34.7224C79.8062 32.6677 81.6952 30.6527 83.2925 28.4123C83.9768 27.4526 84.7155 26.2001 84.2162 25.0097ZM45.9361 33.006C48.3467 32.4483 49.636 31.3597 49.8492 28.7526C48.3527 29.4563 46.8815 31.6626 45.9361 33.006ZM40.4918 33.8566L40.2191 35.0581L38.4502 35.6163L32.4955 36.7489L32.501 34.2995L34.7073 34.0201L40.4918 33.8566ZM43.8945 34.0268V34.1969L41.0022 34.8774C41.1113 33.4777 42.847 33.7171 43.8945 34.0268ZM31.815 35.3878V36.7489C31.0761 36.501 31.2483 36.0275 31.4747 35.3878H31.815ZM31.6449 40.3217C33.2196 43.6985 35.3306 41.4136 37.9398 42.0453C39.962 42.535 41.0645 41.9501 43.0438 41.8973C44.154 41.8677 45.1698 42.5272 46.2764 42.5193C47.2698 42.5122 48.173 41.9346 49.1687 41.8977C50.2886 41.8561 51.3006 42.5188 52.4012 42.5188C53.56 42.5188 54.6185 41.7937 55.8039 41.9108C56.8385 42.0128 57.813 42.584 58.8663 42.5132C59.7967 42.4506 60.6476 41.9325 61.5884 41.8977C63.7634 41.817 65.4037 43.1983 66.6924 40.4919L64.6508 40.8631L61.5884 40.2162L58.526 40.8714L55.2935 40.2179L52.4012 40.8714L49.3388 40.2101L46.1062 40.8457L43.214 40.1965L40.1516 40.8631L36.919 40.2101L33.8566 40.8714L31.6449 40.3217ZM70.2652 40.8321L69.5847 41.3425V41.1724L70.2652 40.8321ZM28.5825 41.0023L37.2593 48.5878L40.662 51.5505C37.3365 49.4797 34.2741 46.6677 31.3767 44.0449C30.5635 43.3088 28.7346 42.1365 28.5825 41.0023ZM69.5847 41.5127V41.6828C65.6812 44.8767 62.1482 49.1096 57.6753 51.5505L65.6691 44.7792L69.5847 41.5127ZM35.7281 44.2348C36.697 45.5501 38.6656 46.4178 40.3217 46.2228C41.2508 46.1136 42.2132 45.5669 43.1418 45.5933C44.2009 45.6236 45.1862 46.2648 46.2764 46.2322C47.3431 46.2003 48.3852 45.5409 49.4368 45.5947C50.4918 45.6486 51.4794 46.272 52.5713 46.2317C53.5588 46.195 54.4901 45.6159 55.4636 45.6037C56.4279 45.5916 57.3854 46.1384 58.3559 46.2204C60.0458 46.3633 61.6708 45.4206 62.7794 44.2348L57.8455 44.4619L55.2935 43.9374L52.4012 44.5531L49.3388 43.9299L46.2764 44.5531L43.214 43.9459L40.3217 44.5233L35.7281 44.2348ZM40.4918 48.318V48.4881C41.8102 49.4314 44.7627 50.1505 46.4465 49.9572C47.4217 49.8453 48.3374 49.3531 49.3388 49.383C51.0619 49.4346 52.1778 50.1194 53.9324 49.6593C55.4023 49.274 57.013 49.7024 57.8455 48.1479C57.0234 47.9782 56.1406 47.6424 55.2935 47.7038C54.3193 47.7744 53.373 48.3121 52.4012 48.3121C51.3681 48.3121 50.3826 47.7035 49.3388 47.696C48.2964 47.6887 47.3467 48.2666 46.3249 48.3189C44.1419 48.4306 42.7601 47.3548 40.4918 48.318ZM46.2764 52.0608V52.231C48.3401 53.5808 50.3657 54.2311 52.2311 52.0608L49.1687 51.4048L46.2764 52.0608ZM57.5052 51.7206V51.8907L56.8247 52.231L57.5052 51.7206ZM33.1761 63.8001L33.6865 64.4806C32.5969 63.9651 31.822 64.4682 30.7942 64.9538C29.5041 65.5633 27.0919 66.4975 26.7695 68.0541C26.3423 70.1165 29.0146 74.984 31.2013 72.0917C31.9986 71.0372 30.4432 69.4992 31.2396 68.4405C31.9984 67.4317 33.7865 67.6555 34.1969 66.3521H34.367C34.8601 66.8235 35.7124 66.2619 36.2385 65.9853C37.3666 65.3918 39.363 64.1247 40.6496 64.1085C41.7476 64.0947 40.6382 66.2119 41.0101 66.7886C42.2486 68.71 43.8911 65.9955 43.8945 64.8209L42.8737 64.991L42.0302 63.9236L42.0231 62.2689H42.1932V63.1195C42.6454 62.7592 45.5615 60.543 44.9728 60.068C44.4298 59.6299 41.9686 60.5653 41.1724 60.5675L41.3425 61.0779C39.8069 60.1709 40.5681 59.4499 39.9814 58.1856C41.2444 57.3545 38.5753 56.2155 37.6011 57.6931C36.3389 59.6078 39.6744 59.11 39.5483 60.7201C39.4989 61.3491 38.5855 61.5863 38.11 61.7957C36.535 62.4897 34.8493 63.3991 33.1761 63.8001ZM58.3559 58.1856C58.0573 59.5714 58.4362 60.2375 56.9948 61.0779L57.3351 60.5675L53.0818 60.0571C53.4123 61.1385 55.3156 62.6146 56.3143 63.1195L56.1442 62.2689H56.3143L56.4844 64.3105C55.9448 64.3836 55.532 64.425 55.4636 64.991C54.4147 64.7299 54.1265 65.6852 54.698 66.5174C55.1399 67.1611 55.9249 67.2902 56.6546 67.1886C58.8212 66.887 56.2262 64.8091 57.3824 64.0978C57.7831 63.8513 58.343 64.2753 58.6962 64.4381C59.8965 64.991 61.0906 65.5009 62.269 66.0873C62.7938 66.3487 63.8004 66.9588 63.9703 66.1819H64.1404C64.4545 67.6548 66.2151 67.3931 67.1003 68.3425C68.0833 69.3968 66.2103 71.1815 67.2576 72.1984C69.466 74.3424 71.9265 70.7337 71.7582 68.5638C71.6779 67.5294 70.9143 66.8705 70.0951 66.3419C68.1289 65.0732 64.3075 62.7255 61.9287 62.7793C61.4266 61.9579 59.6319 61.4148 58.6962 61.2481L60.2274 59.0363L60.5676 59.3766C61.7349 58.2323 60.2704 56.6354 58.8671 56.8984C58.1155 57.0393 57.6196 57.7033 58.3559 58.1856ZM39.6412 58.5826C39.7727 58.5826 39.6684 58.6673 39.5845 58.6394L39.6412 58.5826ZM39.1308 58.7527C39.2623 58.7527 39.158 58.8374 39.0741 58.8095L39.1308 58.7527ZM59.2066 58.6961L59.8871 58.8662V59.0363L59.0364 58.8662L59.2066 58.6961ZM38.6204 58.9228L38.677 58.9797C38.5932 59.0076 38.4889 58.9228 38.6204 58.9228ZM41.6828 61.1346L41.7394 61.1914C41.6556 61.2193 41.5513 61.1346 41.6828 61.1346ZM56.9948 61.0779V61.2481H56.4844L56.9948 61.0779ZM42.1932 61.3047C42.3247 61.3047 42.2204 61.3894 42.1365 61.3615L42.1932 61.3047ZM56.1442 61.7585V62.2689H55.974L56.1442 61.7585ZM34.1969 64.4806V64.6507H33.6865L34.1969 64.4806ZM64.6508 64.4806V64.6507H64.1404L64.6508 64.4806ZM34.5372 64.6507V66.3521H34.367L34.5372 64.6507ZM63.9703 64.6507L63.8002 65.5014H63.63L63.9703 64.6507ZM42.5334 65.2178L42.5901 65.2746C42.5062 65.3025 42.4019 65.2178 42.5334 65.2178ZM55.974 65.2178L56.0307 65.2746C55.9468 65.3025 55.8425 65.2178 55.974 65.2178ZM42.023 65.3879C42.1546 65.3879 42.0503 65.4726 41.9664 65.4447L42.023 65.3879ZM41.5126 65.5581C41.6442 65.5581 41.5398 65.6428 41.456 65.6149L41.5126 65.5581ZM56.8247 65.5581C56.9562 65.5581 56.8519 65.6428 56.768 65.6149L56.8247 65.5581ZM63.9703 65.6715L63.9703 66.1819H63.8002L63.9703 65.6715ZM29.9435 80.6433C29.9435 83.6984 30.8505 88.2434 28.2126 90.457C27.1392 91.3577 24.4758 90.8513 23.1382 90.8513H11.5691C10.2334 90.8513 8.015 91.2728 6.8079 90.6508C5.36619 89.9078 5.26853 87.884 4.59361 86.598L3.23253 87.1084C3.40726 88.297 4.1989 89.6618 4.08372 90.8513C3.89623 92.7873 1.4572 94.0425 0 94.9346L0.680531 96.2956C2.72044 95.8289 4.65366 93.9289 5.44428 92.0423C8.32481 93.0922 12.4291 92.3826 15.4822 92.3826H36.7489H43.8945C44.5866 92.3826 45.9303 92.6599 46.2376 91.847C47.0791 89.6204 45.7532 85.7177 43.0439 85.656C40.1997 85.591 39.6686 88.9071 40.662 90.8513H37.9398C38.9765 88.3948 37.4175 85.8455 34.7073 85.7546C33.4524 85.7126 32.4534 86.3826 31.3046 86.7681L31.4748 80.6433H29.9435ZM81.4941 90.8513H65.8418C63.6857 90.8513 60.7682 91.3669 58.6987 90.7539C57.2347 90.3204 57.5059 87.6516 57.5052 86.4279C57.5049 85.7681 57.6337 84.6852 56.6612 84.7617C55.9245 84.8198 55.997 85.6988 55.4384 86.036C54.1041 86.8416 52.17 86.5903 51.2618 88.145C49.3846 91.3592 54.2769 92.2635 56.3143 91.3617C57.2827 93.036 60.4257 92.3826 62.0988 92.3826H77.2407C78.4415 92.3826 81.7876 92.9692 82.7289 92.2077C83.2604 91.7776 83.1355 89.9729 83.1803 89.3201C83.3764 86.4548 83.1954 83.5159 83.1954 80.6433L81.669 80.916L81.4941 83.5356V90.8513ZM53.2907 81.669C52.2634 82.2911 53.1474 84.0327 54.2339 83.4503C55.3496 82.8522 54.4916 80.9417 53.2907 81.669ZM55.5374 81.669C54.5784 82.3207 55.5832 84.0659 56.6294 83.376C57.7283 82.6516 56.6011 80.9462 55.5374 81.669ZM41.7011 81.968C40.5342 82.3903 41.128 84.3526 42.3449 83.9123C43.5119 83.49 42.9181 81.5277 41.7011 81.968ZM44.072 81.979C42.8363 82.3375 43.3355 84.2059 44.5659 83.9386C45.8543 83.6586 45.2947 81.6243 44.072 81.979ZM96.8061 90.8513L92.0424 90.6812V92.3825C93.5785 92.3825 96.212 92.8963 97.6204 92.2799C99.3399 91.5271 97.9125 88.2338 97.1871 87.2811C96.6932 86.632 94.7851 84.7311 94.1869 86.2654C93.9052 86.9879 94.8149 87.4512 95.2436 87.8636C96.087 88.6751 96.6358 89.6993 96.8061 90.8513ZM88.98 92.5527C87.9881 93.7516 86.5925 94.7389 85.0669 95.1047C86.1724 98.1084 90.0646 94.3607 90.6432 92.5527C90.9008 91.7483 90.8974 90.8367 90.8361 90.0007C90.7883 89.3506 90.624 88.6893 90.2827 88.1292C89.9598 87.5997 89.5096 87.056 88.9793 86.7242C86.0207 84.8737 82.8853 90.5788 86.0879 92.0059C87.0085 92.4162 88.0194 92.324 88.98 92.5527ZM44.7452 90.6812C44.2016 90.6564 43.7201 90.5738 43.214 90.3618C39.8423 88.9508 43.6951 85.6515 44.5914 89.15C44.7214 89.6572 44.7409 90.1611 44.7452 90.6812ZM29.9435 90.8513C30.6059 89.3434 32.1415 87.726 33.8566 87.4856C34.9149 87.3372 36.8501 88.1336 36.6722 89.4724C36.5781 90.1796 35.6167 90.3831 35.0476 90.5085C33.4439 90.8614 31.5847 90.8513 29.9435 90.8513ZM55.974 87.7889C55.974 88.3667 56.1346 89.2553 55.7991 89.7592C54.7695 91.3057 51.1531 89.4142 53.593 88.2942C53.9152 88.1462 54.2698 88.0649 54.6129 87.9813C55.0689 87.8702 55.5061 87.8093 55.974 87.7889ZM89.3202 90.8513C88.555 90.7547 87.273 90.8615 86.6524 90.3651C85.9035 89.766 86.5418 88.5132 87.2859 88.2325C88.8534 87.6414 89.2733 89.7749 89.3202 90.8513ZM50.5297 105.653H49.3388V107.014H50.5297V112.799H52.2311V107.014H54.6129V105.653H52.2311C52.2311 103.631 51.7607 101.041 54.6129 102.08L55.1233 100.719C51.22 98.6731 50.5297 102.83 50.5297 105.653ZM0.340258 110.417C-0.541204 114.286 7.25195 113.741 8.7265 111.095C8.9606 110.674 9.10624 110.214 9.15745 109.736C9.61851 105.43 4.1807 107.016 2.26585 104.916C1.41603 103.985 2.16717 102.662 3.23271 102.347C5.03902 101.813 6.53279 102.755 8.16642 103.271C9.23469 99.4592 1.74268 100.086 0.454938 102.761C0.245503 103.196 0.183061 103.644 0.172683 104.122C0.0802991 108.401 5.20422 106.476 7.0711 108.895C8.85053 111.2 4.4119 111.79 3.0624 111.402C2.12973 111.135 1.26731 110.684 0.340258 110.417ZM72.6471 115.861L72.3069 114.5C70.2057 114.856 67.8429 114.598 66.3522 112.799C70.6149 112.45 71.8979 107.015 70.3406 103.611C69.1003 100.9 65.2746 99.9406 62.6092 100.993C58.9985 102.419 57.9961 107.641 59.9822 110.756C60.8449 112.109 62.1689 112.402 63.4599 113.174C66.5356 115.015 68.9217 117.052 72.6471 115.861ZM63.9703 102.299C65.4101 102.11 66.9146 102.262 67.9739 103.346C70.464 105.896 69.3559 111.013 65.6716 111.556C60.1602 112.37 58.7225 102.99 63.9703 102.299ZM10.8886 105.653H9.69763C9.70901 106.615 9.88477 106.981 10.8886 107.014C10.8886 108.522 10.4563 111.014 11.4728 112.27C12.4662 113.499 15.3357 113.694 14.9718 111.608C12.0298 111.607 12.5899 109.324 12.5899 107.014H14.9718V105.653H12.5899V103.101C10.6927 103.102 10.8886 104.004 10.8886 105.653ZM24.4993 103.101V105.653H23.3083C23.3197 106.615 23.4955 106.981 24.4993 107.014C24.4993 110.013 24.378 114.393 28.7526 112.799L28.5825 111.608C25.622 111.607 26.2006 109.339 26.2006 107.014C28.9535 107.014 28.9535 105.653 26.2006 105.653C26.2006 104.004 26.3964 103.102 24.4993 103.101ZM80.4733 103.101V105.653H79.2823C79.2937 106.615 79.4695 106.981 80.4733 107.014C80.4733 108.522 80.041 111.014 81.0575 112.27C82.1004 113.56 84.7916 113.653 84.5565 111.608C81.6174 111.606 82.1746 109.306 82.1746 107.014C83.4916 107.014 84.5374 107.254 84.5565 105.653H82.1746V103.101H80.4733ZM16.503 105.823L16.8432 107.354C18.3237 106.854 20.4189 106.327 20.5862 108.545C19.5657 108.545 18.3314 108.359 17.3536 108.691C15.7539 109.233 15.213 111.604 16.6915 112.629C18.0575 113.577 19.0332 112.699 20.4161 112.64C20.8972 112.619 21.4255 112.915 21.8932 112.695C22.4325 112.441 22.2874 111.579 22.2875 111.097C22.288 109.698 22.6552 107.372 21.666 106.222C20.4205 104.774 18.0531 105.503 16.503 105.823ZM30.9643 109.906C32.1247 109.906 35.2177 110.459 36.1359 109.731C36.9165 109.113 36.082 106.943 35.582 106.37C34.4676 105.091 32.3605 105.1 30.971 105.894C28.0001 107.592 28.967 112.689 32.3254 113.107C33.0859 113.202 36.5019 112.986 35.503 111.494C35.1095 110.906 34.2148 111.507 33.6865 111.576C32.3855 111.744 31.3424 111.168 30.9643 109.906ZM44.2348 105.401C39.52 106.384 40.6708 114.103 45.5959 113.051C50.2494 112.056 49.0868 104.389 44.2348 105.401ZM72.477 105.823L72.8173 107.184C74.3435 106.96 76.4374 106.308 76.5602 108.545C75.3659 108.545 73.8911 108.302 72.8247 108.948C71.5134 109.742 71.473 111.944 72.8247 112.728C74.2562 113.558 76.6461 112.797 78.2615 112.799C78.2615 109.988 79.1847 105.232 75.029 105.335C74.1703 105.356 73.3134 105.651 72.477 105.823ZM86.0877 105.823L86.428 107.354C87.8969 106.789 90.0071 106.371 90.1709 108.545C88.9949 108.545 87.4804 108.29 86.431 108.924C84.9849 109.799 85.1213 112.063 86.6007 112.826C87.9835 113.539 90.3278 112.793 91.8723 112.799C91.8723 110.093 92.7792 105.344 88.8098 105.326C87.8937 105.322 86.9778 105.64 86.0877 105.823ZM94.9347 106.163C94.7809 105.446 94.0234 105.653 93.4035 105.653V112.799H95.1048C95.1048 110.216 94.2846 106.542 97.9971 107.524C98.5611 105.056 96.7212 105.434 94.9347 106.163ZM34.7073 108.375H30.9643C31.3742 106.362 34.2961 106.354 34.7073 108.375ZM44.235 106.915C46.9168 106.248 48.1159 110.787 45.5957 111.51C42.8155 112.309 41.6877 107.549 44.235 106.915ZM20.5862 109.906C20.4652 113.625 15.1371 109.908 19.2251 109.906H20.5862ZM76.5602 109.906C76.4389 113.632 71.1658 109.913 75.1991 109.906H76.5602ZM90.1709 109.906C90.2631 111.145 88.4133 112.367 87.3812 111.335C86.7905 110.744 87.265 110.006 87.9624 109.925C88.2416 109.892 88.5295 109.907 88.8098 109.906L90.1709 109.906Z" fill="white"/>
<path d="M3.16712 113.01C1.38792 112.798 0.504996 112.185 0.504996 111.161V110.579L1.71764 111.04C2.44098 111.315 3.53958 111.5 4.44027 111.5C8.46304 111.497 8.62628 108.575 4.66359 107.502C3.90708 107.297 2.90043 107.026 2.42659 106.899C0.649728 106.424 -0.227787 104.439 0.616631 102.806C1.75556 100.604 7.08642 100.017 7.98753 101.994C8.41923 102.942 8.00999 103.08 6.42313 102.521C4.54095 101.859 3.0453 101.995 2.26756 102.899C1.5601 103.722 1.5681 104.357 2.29504 105.084C2.83041 105.62 3.45252 105.848 6.61362 106.667C8.27227 107.097 8.97538 107.892 8.97538 109.337C8.97538 111.274 7.5488 112.521 4.87806 112.918C4.26981 113.009 3.49989 113.05 3.16712 113.01Z" fill="white"/>
<path d="M12.2308 112.679C11.3464 112.249 11.0637 111.466 10.9571 109.148C10.8687 107.228 10.791 106.897 10.399 106.772C9.7738 106.574 9.79711 105.692 10.4275 105.692C10.7954 105.692 10.9115 105.531 10.9115 105.02C10.9115 104.231 11.5161 103.272 12.0143 103.272C12.2721 103.272 12.3636 103.589 12.3636 104.482V105.692H13.5737C14.703 105.692 14.7837 105.733 14.7837 106.297C14.7837 106.864 14.7052 106.903 13.5418 106.903H12.2999L12.4165 108.719C12.5459 110.734 12.9098 111.37 14.0828 111.627C14.8223 111.79 14.9767 112.179 14.4933 112.662C14.1478 113.008 12.9261 113.017 12.2308 112.679Z" fill="white"/>
<path d="M17.0828 112.684C16.336 112.259 15.9938 111.716 15.9938 110.955C15.9938 109.404 17.1086 108.597 19.2489 108.597C20.4141 108.597 20.592 108.535 20.592 108.13C20.592 107.211 19.8967 106.842 18.3726 106.952C17.1434 107.041 16.9469 106.995 16.8169 106.585C16.6226 105.973 17.0137 105.751 18.6456 105.547C20.3624 105.333 21.5457 105.901 21.9699 107.145C22.3168 108.162 22.3721 111.716 22.0489 112.227C21.9049 112.454 21.4321 112.593 20.782 112.599C20.2116 112.604 19.2549 112.687 18.6559 112.784C17.9689 112.894 17.3882 112.857 17.0828 112.684ZM20.0541 111.366C20.3604 111.151 20.592 110.735 20.592 110.398C20.592 109.853 20.5012 109.807 19.4424 109.81C18.8102 109.812 18.146 109.907 17.9666 110.021C17.485 110.326 17.7259 111.081 18.416 111.431C19.1999 111.827 19.4074 111.819 20.0541 111.366Z" fill="white"/>
<path d="M25.7106 112.387C25.0012 111.631 24.7062 110.509 24.7062 108.564C24.7062 107.05 24.6706 106.946 24.1011 106.803C23.2597 106.592 23.2597 105.693 24.1011 105.693C24.6658 105.693 24.7062 105.612 24.7062 104.482C24.7062 103.674 24.8065 103.274 25.0087 103.276C25.6272 103.284 25.9566 103.714 26.0868 104.685C26.2081 105.59 26.2967 105.697 27.0391 105.836C27.4893 105.92 27.9139 106.081 27.9828 106.192C28.1439 106.453 27.3053 106.903 26.6582 106.903C26.1987 106.903 26.1582 107.045 26.1582 108.664C26.1582 110.741 26.5132 111.409 27.7383 111.639C28.3237 111.749 28.5783 111.927 28.5783 112.228C28.5783 113.135 26.5209 113.249 25.7106 112.387Z" fill="white"/>
<path d="M31.0449 112.479C30.1551 111.919 29.315 110.327 29.315 109.202C29.315 107.85 30.1171 106.537 31.2894 105.969C33.3162 104.988 35.0772 105.488 35.8642 107.267C36.86 109.518 36.1412 110.149 32.8537 109.908L30.7158 109.752L31.0877 110.471C31.6097 111.481 32.685 111.881 34.0399 111.571C34.8903 111.377 35.1677 111.396 35.3929 111.668C35.8906 112.267 35.0852 112.751 33.3841 112.873C32.1173 112.964 31.7041 112.894 31.0449 112.479ZM34.8706 108.368C34.8706 108.242 34.6125 107.839 34.297 107.473C33.4915 106.536 32.134 106.538 31.3266 107.477C31.0092 107.846 30.812 108.249 30.8883 108.372C31.071 108.668 34.8706 108.664 34.8706 108.368Z" fill="white"/>
<path d="M42.7592 112.215C41.7527 111.331 41.3064 110.122 41.4655 108.711C41.868 105.14 46.4907 104.242 47.948 107.452C48.5352 108.746 48.5352 109.658 47.948 110.951C47.0118 113.013 44.3947 113.651 42.7592 112.215ZM46.3772 111.149C47.4981 110.028 47.007 107.519 45.5484 106.915C43.7259 106.16 42.1825 107.884 42.8555 109.923C43.4259 111.651 45.2422 112.284 46.3772 111.149Z" fill="white"/>
<path d="M50.6014 109.807V106.903H49.9963C49.5123 106.903 49.3913 106.782 49.3913 106.298C49.3913 105.821 49.5142 105.693 49.9684 105.693C50.4901 105.693 50.5619 105.559 50.7151 104.301C50.9229 102.594 51.6001 100.982 52.2568 100.631C53.3733 100.033 55.0077 100.487 54.7865 101.333C54.6873 101.712 54.4575 101.82 53.7489 101.82C52.5374 101.82 52.2147 102.274 52.0956 104.145L51.997 105.693H53.2353C54.3947 105.693 54.4735 105.731 54.4735 106.298C54.4735 106.862 54.3929 106.903 53.2635 106.903H52.0534V109.807V112.711H51.3274H50.6014V109.807Z" fill="white"/>
<path d="M67.9747 115.519C67.2143 115.206 65.7986 114.46 64.8286 113.86C63.8586 113.26 62.6838 112.58 62.2179 112.349C60.3945 111.443 59.4261 110.001 59.1683 107.807C58.8566 105.155 60.2411 102.354 62.3776 101.314C65.3869 99.8497 69.2316 101.236 70.3703 104.195C70.9218 105.629 70.9128 107.939 70.3502 109.412C69.905 110.578 68.0397 112.466 67.3265 112.472C67.1123 112.475 66.7807 112.575 66.5896 112.696C65.6444 113.294 67.9844 114.476 70.4463 114.644C72.0644 114.754 72.2693 114.824 72.3345 115.281C72.4747 116.263 70.1001 116.393 67.9747 115.519ZM66.318 111.505C68.2467 110.952 69.7158 108.35 69.3739 106.093C69.168 104.733 68.307 103.272 67.4 102.742C65.6719 101.733 63.0615 101.982 61.7636 103.28C59.6839 105.36 60.5629 110.047 63.2624 111.272C64.4094 111.793 65.1232 111.847 66.318 111.505Z" fill="white"/>
<path d="M72.7966 112.466C71.9864 111.829 71.7614 110.774 72.2387 109.851C72.6867 108.984 73.6824 108.597 75.46 108.597C76.7079 108.597 76.7631 108.57 76.6043 108.052C76.282 107.001 76.0029 106.861 74.3939 106.944C73.5532 106.988 72.8656 106.951 72.8659 106.862C72.8662 106.773 72.8029 106.535 72.7252 106.332C72.5395 105.848 74.3092 105.353 75.6032 105.527C77.5051 105.782 78.1907 107.065 78.1907 110.37V112.643L76.9201 112.796C74.5905 113.076 73.4567 112.985 72.7966 112.466ZM75.9158 111.558C76.233 111.346 76.7386 110.428 76.7386 110.065C76.7386 109.756 74.3468 109.72 73.8711 110.021C73.3896 110.326 73.6305 111.081 74.3206 111.431C75.0033 111.776 75.5263 111.818 75.9158 111.558Z" fill="white"/>
<path d="M82.4061 112.918C81.0318 112.549 80.741 111.958 80.6501 109.346C80.5759 107.215 80.5203 106.978 80.0465 106.769C79.2561 106.421 79.2165 105.692 79.988 105.692C80.574 105.692 80.6107 105.621 80.6107 104.482C80.6107 103.299 80.6269 103.272 81.3368 103.272C82.0467 103.272 82.0628 103.299 82.0628 104.482V105.692H83.2729C83.9384 105.692 84.4829 105.794 84.4829 105.917C84.4829 106.405 83.6799 106.903 82.8926 106.903H82.0628V108.464C82.0628 109.323 82.1837 110.291 82.3315 110.616C82.599 111.203 83.4614 111.743 84.1313 111.743C84.5629 111.743 84.5802 112.013 84.1804 112.51C83.7549 113.038 83.2687 113.15 82.4061 112.918Z" fill="white"/>
<path d="M86.5779 112.679C86.3324 112.536 85.977 112.049 85.7881 111.597C85.4924 110.889 85.492 110.661 85.7847 109.96C86.191 108.988 87.1129 108.596 88.9963 108.596C90.4101 108.596 90.5737 108.382 89.8961 107.414C89.5388 106.904 89.3556 106.859 87.9787 106.947C86.5573 107.038 86.4494 107.008 86.3525 106.501C86.2313 105.867 86.461 105.749 88.212 105.543C90.8468 105.233 91.7433 106.424 91.7433 110.233V112.643L90.4727 112.796C88.6107 113.02 87.0853 112.974 86.5779 112.679ZM89.6972 111.149C90.6825 110.163 90.4912 109.807 88.9774 109.807C88.1058 109.807 87.5357 109.935 87.2833 110.187C86.8334 110.637 86.8296 110.669 87.1536 111.275C87.5275 111.973 88.9426 111.903 89.6972 111.149Z" fill="white"/>
<path d="M93.4374 109.202C93.4374 105.984 93.4735 105.693 93.873 105.693C94.1126 105.693 94.43 105.814 94.5783 105.962C94.7766 106.16 95.1808 106.147 96.1043 105.91C97.2691 105.611 97.3852 105.622 97.6981 106.049C97.8837 106.303 98.0356 106.702 98.0356 106.936C98.0356 107.277 97.844 107.353 97.0653 107.322C95.457 107.258 95.0286 107.902 94.9259 110.539L94.8413 112.711H94.1393H93.4374V109.202Z" fill="white"/>
<path d="M85.6123 95.8507C85.2502 95.4886 85.4996 95.1155 86.3585 94.7347C87.3515 94.2944 89.0811 92.9533 89.0811 92.6236C89.0811 92.5098 88.4744 92.3409 87.7329 92.2482C85.8933 92.0184 84.9669 91.2413 84.9669 89.9282C84.9669 87.2712 87.4874 85.6711 89.2872 87.1855C90.9686 88.6003 91.2414 91.7178 89.8494 93.6106C88.8502 94.9693 87.4211 95.9971 86.5198 96.0053C86.1094 96.009 85.701 95.9394 85.6123 95.8507ZM89.2545 89.9429C89.0137 88.1479 87.6995 87.4507 86.6598 88.5666C85.5862 89.7191 86.4951 90.9188 88.4474 90.9262L89.3868 90.9298L89.2545 89.9429Z" fill="white"/>
<path d="M57.4672 92.0332C57.0506 91.8519 56.6429 91.5954 56.5611 91.4631C56.464 91.3059 56.0565 91.3026 55.3853 91.4534C53.2803 91.9263 51.0854 90.8512 51.0854 89.3471C51.0854 88.1307 51.8643 87.3767 53.7001 86.816C54.8638 86.4607 55.4984 86.1069 55.9514 85.5611C56.3747 85.051 56.713 84.8512 56.9799 84.9537C57.3034 85.0778 57.3777 85.4706 57.3777 87.0577C57.3777 89.5527 57.778 90.576 58.8709 90.8742C59.3285 90.9991 64.4005 91.0446 70.6064 90.9796L81.536 90.8651L81.6179 86.0771C81.6629 83.4436 81.7542 81.2391 81.8208 81.1782C81.8874 81.1173 82.1868 80.9921 82.4863 80.9L83.0309 80.7327V86.1769C83.0309 90.8036 82.9737 91.6783 82.6506 92.0015C82.3148 92.3373 80.8629 92.3807 70.2475 92.3723C60.6499 92.3648 58.0719 92.2964 57.4672 92.0332ZM55.6836 89.9617C55.9832 89.6621 56.1676 89.155 56.1676 88.6306C56.1676 87.8676 56.1016 87.7837 55.5021 87.785C54.3727 87.7873 53.0397 88.2654 52.7729 88.7639C52.567 89.1486 52.6334 89.3536 53.1221 89.8423C53.8648 90.585 55.007 90.6383 55.6836 89.9617Z" fill="white"/>
<path d="M92.2267 91.5954L92.2262 90.8088L94.5258 90.8859C96.4452 90.9503 96.8255 90.9029 96.8255 90.5992C96.8255 89.8361 96.2771 88.8541 95.2196 87.7235C94.3234 86.7654 94.1762 86.4867 94.4148 86.1993C94.8537 85.6704 95.2654 85.7675 96.2504 86.6324C97.3203 87.5717 98.2719 89.4998 98.2752 90.7346C98.2788 92.1156 97.7033 92.3819 94.7145 92.3819H92.2273L92.2267 91.5954Z" fill="white"/>
<path d="M41.3569 83.2975C41.126 82.7908 41.1488 82.6118 41.4876 82.273C42.2375 81.5232 43.29 82.7351 42.6054 83.5601C42.1666 84.0887 41.6697 83.9842 41.3569 83.2975Z" fill="white"/>
<path d="M43.8735 83.621C43.4791 83.2267 43.5078 82.5811 43.9355 82.2262C44.6274 81.6519 45.5384 82.8895 44.8963 83.5316C44.4404 83.9876 44.2561 84.0037 43.8735 83.621Z" fill="white"/>
<path d="M55.5767 83.0439C55.354 82.8212 55.2324 82.4807 55.3066 82.2873C55.3809 82.0939 55.4416 81.8902 55.4416 81.8345C55.4416 81.7788 55.7172 81.7333 56.0542 81.7333C56.7454 81.7333 57.093 82.3311 56.7334 82.9013C56.3836 83.4559 56.032 83.4992 55.5767 83.0439Z" fill="white"/>
<path d="M53.2732 83.0761C52.869 82.5891 53.0542 81.8781 53.6133 81.7704C54.2529 81.6472 54.7705 82.3886 54.4557 82.9769C54.1668 83.5167 53.6732 83.5581 53.2732 83.0761Z" fill="white"/>
<path d="M0.494441 95.5082C0.275389 95.0989 0.30785 94.9414 0.66743 94.6689C0.910888 94.4844 1.17679 94.3299 1.25831 94.3257C1.57403 94.3093 3.2982 92.7992 3.70437 92.1833C4.23383 91.3805 4.25049 90.1958 3.75574 88.5298C3.33596 87.1162 3.32368 87.1812 4.05286 86.9574C4.49752 86.8209 4.61979 86.9338 4.87214 87.7138C5.36249 89.2296 6.04202 90.4131 6.59046 90.7066C6.95577 90.9021 10.1316 90.9836 17.3864 90.9836C27.1406 90.9836 27.6966 90.96 28.2865 90.5195C29.743 89.432 30.4138 86.7807 30.1572 83.125L29.9916 80.7654H30.616H31.2405V83.7905C31.2405 85.4543 31.311 86.8157 31.3971 86.8157C31.4833 86.8157 32.1867 86.5849 32.9603 86.3028C34.8244 85.6231 35.863 85.815 37.1191 87.0711C38.0331 87.9851 38.0581 88.0549 37.9781 89.4716L37.8958 90.9307L39.2699 90.9303L40.6439 90.93L40.5088 89.6204C40.3367 87.9529 40.5397 87.1637 41.3291 86.4321C42.6293 85.2271 44.8005 85.9203 45.7281 87.8366C46.3685 89.1595 46.4399 91.4267 45.8594 92.0072C45.5113 92.3553 43.5512 92.3853 25.833 92.3139C15.0306 92.2703 6.01468 92.1862 5.79757 92.1269C5.53348 92.0547 5.12826 92.4149 4.57338 93.2149C3.75939 94.3886 1.7388 96.0122 1.09217 96.0122C0.911728 96.0122 0.642752 95.7853 0.494441 95.5082ZM35.7796 90.4425C37.2147 89.9197 37.0679 88.4345 35.508 87.6942C34.4519 87.1931 34.016 87.2039 32.7885 87.7613C31.6978 88.2566 30.6856 89.2163 30.111 90.2998L29.7393 91.0007L32.3655 90.8652C33.8099 90.7906 35.3462 90.6004 35.7796 90.4425ZM44.7322 89.589C44.5833 88.2683 43.9924 87.5417 43.0671 87.5417C42.2347 87.5417 41.5251 88.4707 41.7695 89.2406C41.9804 89.9052 43.2701 90.6858 44.159 90.6869C44.843 90.6878 44.8537 90.6672 44.7322 89.589Z" fill="white"/>
<path d="M45.2287 61.114C45.3884 60.9543 45.5191 60.5596 45.5191 60.237C45.5191 59.6742 45.4654 59.6549 44.1924 59.7604C42.5047 59.9004 42.7185 59.5849 45.0349 58.5172C45.9668 58.0877 46.7292 57.6453 46.7292 57.5341C46.7292 57.4229 46.0485 56.9504 45.2166 56.4842C42.9807 55.231 34.6235 48.4318 28.8567 43.174C25.5548 40.1637 18.9197 33.19 16.4121 30.0945C15.1381 28.5219 13.8499 25.9559 14.1725 25.6333C14.245 25.5608 18.36 29.5273 23.3169 34.4478C28.2738 39.3682 33.5819 44.4662 35.1126 45.7767C37.8085 48.0847 43.8831 52.7579 46.8502 54.8064C49.0711 56.3398 49.2265 56.3373 51.5913 54.7305C59.8321 49.1314 69.9034 40.2302 80.596 29.0959C84.1829 25.3608 84.3094 25.2563 84.1701 26.1422C83.7016 29.1228 71.2884 42.287 61.7338 49.9359C60.7356 50.735 58.4486 52.435 56.6516 53.7136C54.8547 54.9921 52.9507 56.4148 52.4206 56.875L51.4567 57.7117L53.3886 58.6989L55.3206 59.6862L54.1634 59.6983C52.891 59.7116 52.5597 60.0576 53.0113 60.9015C53.1594 61.1781 53.2347 61.4044 53.1788 61.4044C53.1229 61.4044 52.2233 60.9178 51.1796 60.3229L49.2821 59.2414L47.2819 60.3229C45.2404 61.4267 44.7126 61.6301 45.2287 61.114ZM58.7539 51.0882C60.9736 49.5808 62.0501 48.6986 65.606 45.4729C68.956 42.434 70.2758 41.0664 70.0635 40.854C69.986 40.7766 69.7954 40.885 69.6399 41.095C69.4844 41.3049 66.7979 43.6367 63.6699 46.2767C56.2544 52.5353 55.4188 53.3532 58.7539 51.0882ZM39.7108 50.5169C39.1119 50.0099 36.3892 47.6374 33.6606 45.2446C29.1454 41.2852 28.2756 40.6636 28.6628 41.6726C28.8575 42.1801 36.6567 48.9385 38.7422 50.4071C40.789 51.8483 41.3604 51.9131 39.7108 50.5169Z" fill="white"/>
<path d="M52.2068 38.7078C52.1423 38.6035 53.2794 38.1516 54.7336 37.7037L57.3777 36.8892V25.458V14.0267L56.759 13.9085C56.1744 13.7967 55.4416 14.2302 55.4416 14.6877C55.4416 15.0104 56.1381 15.1819 56.3111 14.9019C56.4211 14.724 56.5232 14.7305 56.6421 14.9229C56.92 15.3725 56.5661 16.9204 56.1213 17.2009C55.5452 17.5643 54.7156 16.7731 54.7156 15.8604C54.7156 15.21 54.6791 15.1834 54.171 15.4632C53.8715 15.6281 53.5143 15.768 53.3772 15.7742C53.2401 15.7803 52.5821 16.3571 51.9151 17.0559C51.1464 17.8613 50.5006 18.3265 50.1515 18.3265C49.6924 18.3265 49.6284 18.2359 49.767 17.782C50.1537 16.5158 50.5856 15.6992 51.2971 14.8888C51.7131 14.415 52.0534 13.9505 52.0534 13.8566C52.0534 13.5145 49.9609 14.0471 48.5844 14.7396C47.3742 15.3484 47.1842 15.3887 47.2549 15.0218C47.3002 14.7863 47.7928 14.2628 48.3495 13.8584C49.3864 13.1053 49.7465 12.3616 48.9678 12.5813C48.7349 12.647 47.9725 12.9303 47.2737 13.211C46.2175 13.6351 46.0032 13.6606 46.0032 13.3617C46.0032 13.164 46.2321 12.7734 46.5118 12.4936L47.0205 11.9849L46.234 12.1577L45.4476 12.3304L45.977 11.5869C46.6597 10.6281 47.7033 9.8912 48.6449 9.70287C49.0554 9.62077 49.3913 9.46895 49.3913 9.36551C49.3913 8.97224 47.814 8.64565 46.6252 8.79274L45.3981 8.94456L45.9027 8.41842C46.1975 8.11114 47.1422 7.70326 48.174 7.43786C49.1457 7.18792 50.042 6.88208 50.1659 6.75822C50.3048 6.61928 49.7129 6.39683 48.6207 6.17752L46.8502 5.82203L48.2684 5.39403C49.5891 4.99546 49.965 4.99589 51.5694 5.3978C52.0504 5.51827 51.9014 5.29826 50.8434 4.32505C49.577 3.16021 49.5439 3.10024 50.1621 3.09027C51.4572 3.06939 54.7723 4.82839 54.5466 5.41665C54.4779 5.59555 54.5559 5.74192 54.7199 5.74192C54.9298 5.74192 54.9678 5.50908 54.8482 4.95538C54.564 3.63994 54.2575 1.03706 54.3732 0.921396C54.433 0.861561 54.6129 1.15936 54.7728 1.58318C55.1512 2.58554 55.4416 2.56458 55.4416 1.53493C55.4416 0.858168 55.5445 0.696444 56.0345 0.602767C56.6941 0.476676 56.8937 0.775563 56.8937 1.88953C56.8937 2.99879 57.3004 2.71651 57.6197 1.38571C57.7967 0.647965 58.0423 0.175659 58.2489 0.175659C58.5092 0.175659 58.5877 0.596137 58.5877 1.99074C58.5877 3.76505 58.8749 4.38109 59.1644 3.22776C59.3308 2.5646 60.8467 1.1437 61.3878 1.1437C61.6718 1.1437 61.6963 1.24569 61.5004 1.61182C60.9354 2.66756 61.381 2.8464 63.0649 2.23973C64.5609 1.7008 64.816 1.77853 64.0783 2.54851C63.3334 3.32595 63.2699 3.56382 63.8073 3.56382C64.0709 3.56382 64.1417 3.70522 64.0395 4.02747C63.9585 4.28248 64.0009 4.55823 64.1336 4.64025C64.2663 4.72227 64.3172 4.93965 64.2467 5.12332C64.1543 5.36408 64.495 5.54149 65.4674 5.75911C66.7788 6.05259 67.2939 6.46795 66.3464 6.46795C66.088 6.46795 65.8093 6.57685 65.7271 6.70996C65.6386 6.85309 65.9122 6.95197 66.3966 6.95197C67.2932 6.95197 68.6077 8.00379 67.9834 8.22161C67.737 8.30756 67.7643 8.44742 68.102 8.82817C68.5349 9.3164 68.524 9.32862 67.2801 9.74176L66.0194 10.1605L66.7323 10.4603C67.4458 10.7603 68.7522 12.1088 68.7522 12.5453C68.7522 12.6842 68.558 12.6734 68.2682 12.5182C67.8903 12.316 67.7842 12.3342 67.7842 12.6012C67.7842 12.9358 66.8958 12.8311 63.9725 12.1516C62.9102 11.9046 63.4489 12.5005 64.8608 13.1341C65.6488 13.4877 66.5425 14.0421 66.8468 14.366C67.2741 14.8209 67.5539 14.9211 68.0761 14.8064C68.6101 14.6891 68.7522 14.7447 68.7522 15.0709C68.7522 15.4227 68.9383 15.4661 70.0067 15.3634C71.0649 15.2617 71.1952 15.2911 70.8393 15.5514C70.5862 15.7364 70.5157 15.9207 70.6632 16.0119C70.7985 16.0955 70.8511 16.3153 70.7801 16.5003C70.5665 17.0568 71.1225 17.7931 71.8825 17.96C72.328 18.0578 72.5517 18.2344 72.4769 18.4291C72.4077 18.6095 72.6471 18.8614 73.0439 19.0258C73.5022 19.2157 73.7328 19.4888 73.7369 19.8469C73.7443 20.4768 73.4378 20.7378 72.6849 20.7429C72.0061 20.7475 71.9721 21.1446 72.6326 21.3542C73.1393 21.515 74.0765 22.3945 74.0765 22.7091C74.0765 23.1014 72.6702 23.1614 71.6783 22.8114C70.4362 22.3732 70.4463 22.3743 70.4463 22.6781C70.4463 22.8087 70.7066 22.9808 71.0248 23.0607C71.6805 23.2253 73.0341 24.5318 72.7958 24.7701C72.7098 24.856 72.3638 24.7457 72.0269 24.525C71.3072 24.0534 71.2869 24.1586 71.8046 25.6778C72.0192 26.3077 72.1311 26.8869 72.0532 26.9648C71.8753 27.1426 70.2043 25.8861 70.2043 25.5745C70.2043 25.2019 69.4755 25.3123 69.3237 25.7078C68.9797 26.6045 67.8479 25.5685 68.1036 24.5909C68.1789 24.3027 68.0607 24.0407 67.7898 23.8958C67.3824 23.6777 67.344 23.9206 67.1796 27.7545C67.0831 30.0048 67.0819 32.8285 67.1769 34.0295L67.3498 36.2131L68.4745 36.3656C70.3571 36.6208 70.4819 36.6846 70.1846 37.2402C69.5201 38.4818 66.7997 38.9406 63.1927 38.4193C61.9757 38.2435 61.2892 38.2777 60.1139 38.5729C58.7313 38.9202 58.4602 38.9191 56.9609 38.5595C55.4839 38.2052 55.1881 38.2022 53.9895 38.5289C52.4396 38.9514 52.3621 38.9591 52.2068 38.7078ZM65.8481 29.943C65.8481 25.9095 65.7612 23.6507 65.6061 23.6507C65.473 23.6507 65.3641 24.0655 65.3641 24.5725C65.3641 25.0795 65.2279 25.6805 65.0615 25.908C64.7837 26.2879 64.6826 26.2587 63.8234 25.5505C62.9452 24.8266 62.8723 24.807 62.6354 25.2302C62.2681 25.8865 61.2316 26.7969 60.8515 26.7969C60.4078 26.7969 60.4194 26.748 61.2533 25.0959C61.9151 23.785 61.9409 23.6507 61.5315 23.6507C60.6077 23.6507 59.5174 24.2042 59.2965 24.7852C59.1729 25.1103 59.0718 27.8196 59.0718 30.8058V36.2353H62.4599H65.8481V29.943ZM60.2818 15.9149C60.2818 14.477 60.2107 14.1913 59.7978 13.9703C59.3324 13.7212 59.3138 13.7862 59.3138 15.6559C59.3138 17.4391 59.3539 17.6005 59.7978 17.6005C60.2355 17.6005 60.2818 17.4391 60.2818 15.9149ZM55.278 14.599C55.4147 14.2429 55.2582 13.9703 54.9172 13.9703C54.8063 13.9703 54.7156 14.1881 54.7156 14.4543C54.7156 15.0092 55.0842 15.104 55.278 14.599Z" fill="white"/>
<path d="M31.558 38.5537C30.9582 38.2844 30.7241 37.9746 30.5054 37.1608C30.3508 36.5852 29.9179 35.2975 29.5436 34.2992C28.2982 30.9782 28.0625 29.7446 27.9255 25.8288C27.8278 23.0382 27.8951 21.3959 28.1882 19.4155C28.6503 16.2931 30.5189 8.51036 31.1753 6.9739L31.6312 5.90686L32.1918 6.8529C33.447 8.97135 42.3596 24.6263 43.2706 26.3128C44.1293 27.9026 44.2669 28.3778 44.3793 30.142C44.487 31.8323 44.4515 32.1347 44.1586 32.0222C43.5533 31.79 41.085 31.2008 39.9908 31.0274C38.5019 30.7915 36.5535 31.0878 35.5807 31.6981L34.7496 32.2195L35.8386 32.3944C36.4376 32.4905 38.1801 32.5816 39.7108 32.5969C42.0477 32.6201 42.7027 32.7146 43.7961 33.1864L45.0982 33.7483L47.993 32.5536C49.5851 31.8965 50.9432 31.4143 51.011 31.482C51.0788 31.5498 50.5199 31.952 49.7691 32.3757C48.3179 33.1947 47.8734 33.8284 47.1074 36.17C46.3784 38.3987 46.181 38.5247 43.3016 38.5986C41.9257 38.6339 40.2553 38.6474 39.5898 38.6285C36.1809 38.5321 34.8745 38.5518 33.6605 38.7179C32.695 38.8501 32.1176 38.805 31.558 38.5537ZM31.9664 36.1142C31.9664 35.5227 31.857 35.2672 31.6034 35.2672C31.3637 35.2672 31.2404 35.507 31.2404 35.9731C31.2404 36.5645 31.3873 36.7784 31.906 36.9422C31.9392 36.9527 31.9664 36.5801 31.9664 36.1142ZM38.7787 35.6162C40.2589 35.2583 40.3961 35.1705 40.4914 34.5211L40.595 33.8151H38.0103C36.5887 33.8151 34.7562 33.8851 33.938 33.9706L32.4505 34.1261V35.5073V36.8886L34.8101 36.4469C36.1079 36.204 37.8938 35.8302 38.7787 35.6162ZM42.8153 34.5717C44.5527 34.1909 44.543 33.806 42.7944 33.7383C41.6804 33.6952 40.9209 34.0883 40.9209 34.7081C40.9209 34.9287 41.0772 35.0104 41.3444 34.9295C41.5773 34.8589 42.2392 34.6979 42.8153 34.5717Z" fill="white"/>
<path d="M44.5156 42.063C44.1633 41.9496 41.4745 41.8906 38.5406 41.9319L33.2061 42.0071L32.5826 41.3836C31.8183 40.6193 31.9128 40.4871 33.0075 40.7893C33.6124 40.9563 34.2786 40.9238 35.3573 40.6746C36.658 40.3741 37.0882 40.3732 38.5195 40.6677C39.948 40.9616 40.3879 40.961 41.7134 40.6637C43.0242 40.3697 43.4622 40.3675 44.6874 40.6492C45.888 40.9252 46.3826 40.9269 47.6965 40.6597C49.0048 40.3935 49.5339 40.3944 50.8487 40.6649C52.1726 40.9373 52.6616 40.9371 53.8665 40.6634C55.0806 40.3877 55.5586 40.3891 56.9367 40.6727C58.3374 40.9609 58.7871 40.9596 60.1062 40.6637C61.4403 40.3645 61.8433 40.3651 63.1559 40.6683C64.1079 40.8882 64.9766 40.9482 65.5002 40.8301C66.4545 40.6148 66.5505 40.803 65.8223 41.4615C65.3079 41.9267 63.639 42.0632 58.5877 42.0533C57.7225 42.0516 56.2523 42.0556 55.3206 42.0621C52.7167 42.0802 51.1005 42.0709 49.5123 42.0288C48.7137 42.0076 47.4068 42.0531 46.6082 42.1298C45.8095 42.2066 44.8679 42.1765 44.5156 42.063Z" fill="white"/>
<path d="M41.4827 22.1894C40.0136 19.5989 37.9647 15.9002 36.9296 13.9702C35.8944 12.0401 34.6847 9.89287 34.2412 9.19849C33.1975 7.56432 32.1447 5.48294 32.2888 5.3388C32.4909 5.13674 33.5861 6.7866 34.6064 8.82986C35.1554 9.92933 36.5483 12.4341 37.7017 14.3961C42.935 23.2976 44.4255 26.0845 44.2441 26.6287C44.1944 26.7777 42.9518 24.78 41.4827 22.1894Z" fill="white"/>
<path d="M47.8787 52.8952C47.2465 52.6164 46.7292 52.3077 46.7292 52.2092C46.7292 52.1107 47.2661 51.9239 47.9224 51.7941C49.2391 51.5338 51.8819 51.8754 51.7443 52.2882C51.6268 52.6407 50.0805 53.4192 49.5161 53.4101C49.2478 53.4058 48.511 53.1741 47.8787 52.8952Z" fill="white"/>
<path d="M38.1378 45.7699C37.6054 45.5754 36.952 45.1896 36.6857 44.9125L36.2017 44.4087L38.2931 44.5288C39.4763 44.5967 41.0002 44.5237 41.8023 44.3607C42.9241 44.1326 43.5358 44.1378 44.7326 44.3854C45.9887 44.6452 46.515 44.6417 47.8365 44.3647C49.189 44.0812 49.6427 44.0812 50.8596 44.365C52.07 44.6474 52.5335 44.6483 53.8576 44.3707C54.719 44.1902 55.4861 44.1047 55.5622 44.1809C55.6384 44.257 57.1943 44.379 59.0198 44.452L62.3389 44.5846L61.2499 45.2264C59.7077 46.1353 58.8999 46.2415 57.0547 45.778C55.5515 45.4004 55.3555 45.4012 53.9159 45.7909C52.4633 46.1841 52.2999 46.184 50.8905 45.7885C49.4876 45.3949 49.3058 45.3943 47.7766 45.7784C46.2492 46.1621 46.0613 46.1617 44.6189 45.7712C43.1839 45.3828 42.9927 45.3819 41.6438 45.7569C39.9254 46.2346 39.415 46.2366 38.1378 45.7699Z" fill="white"/>
<path d="M42.8531 49.3346C42.1189 49.0995 41.3021 48.782 41.038 48.6289C40.4107 48.2652 40.5116 48.2525 44.6721 48.1715C46.5356 48.1352 48.6048 48.0891 49.2703 48.0689C49.9358 48.0488 51.0068 48.1158 51.6503 48.2178C52.3973 48.3363 53.2836 48.2922 54.1022 48.0958C54.8885 47.9072 55.8295 47.855 56.5358 47.9609C57.6667 48.1305 57.6792 48.1419 57.2281 48.5929C56.4888 49.3322 53.1964 49.8069 51.0799 49.4793C49.7933 49.2801 49.0114 49.2855 47.9701 49.5006C46.0645 49.8942 44.4364 49.8413 42.8531 49.3346Z" fill="white"/>
<path d="M67.6444 72.2192C66.9588 71.6295 66.9554 71.6128 67.267 70.397C67.704 68.6917 67.4917 68.2388 65.9316 67.5489C64.8923 67.0892 64.5347 66.7826 64.2537 66.11C63.8747 65.203 63.9612 64.7926 64.5313 64.7926C64.7231 64.7926 64.88 64.6837 64.88 64.5506C64.88 64.1487 64.4275 64.277 63.8666 64.8379C63.5696 65.1349 63.4521 65.4056 63.5989 65.4546C63.7428 65.5026 63.8034 65.7606 63.7335 66.0279C63.6635 66.2953 63.4845 66.4633 63.3356 66.4013C63.1867 66.3394 61.829 65.7216 60.3185 65.0285C57.8667 63.9036 57.5328 63.8077 57.2059 64.1346C56.8996 64.4409 56.8873 64.6452 57.1307 65.3827C57.5412 66.6266 57.3354 66.9707 56.1808 66.9707C55.4126 66.9707 55.1281 66.8445 54.8135 66.3644C54.4934 65.8759 54.4746 65.688 54.7165 65.3964C54.8817 65.1974 55.1668 65.0346 55.3502 65.0346C55.5336 65.0346 55.6836 64.9384 55.6836 64.8208C55.6836 64.7032 55.9122 64.5472 56.1917 64.4742C56.645 64.3556 56.6812 64.2288 56.5274 63.2964C56.4327 62.7217 56.2516 62.0881 56.1251 61.8884C55.9628 61.6323 55.9383 61.7285 56.042 62.215L56.1889 62.9046L55.5127 62.4003C54.5299 61.6672 54.1687 61.3435 53.6281 60.7113L53.1456 60.147L54.3541 60.3073C56.7411 60.6238 56.9427 60.6906 56.6336 61.0632C56.4108 61.3316 56.4296 61.4044 56.7215 61.4044C56.9256 61.4044 57.3818 61.0608 57.7351 60.6409C58.2584 60.019 58.3665 59.6685 58.3179 58.7525C58.2472 57.4195 58.4292 57.0482 59.1532 57.0482C59.9601 57.0482 60.7658 57.7201 60.7658 58.393C60.7658 59.0408 60.5102 59.1236 59.7559 58.7199C59.3986 58.5286 59.1886 58.5286 58.9974 58.7199C58.8061 58.9111 58.8429 58.9843 59.1301 58.9843C59.7915 58.9843 59.8061 59.3437 59.182 60.2621C58.8552 60.7431 58.5877 61.1797 58.5877 61.2323C58.5877 61.2848 59.0506 61.4662 59.6163 61.6354C60.182 61.8046 60.9171 62.1288 61.2498 62.3557C61.5826 62.5827 62.5628 62.9583 63.4279 63.1905C64.2931 63.4226 65.8011 64.0426 66.779 64.5682C71.563 67.1395 72.2911 68.1134 71.1989 70.4798C70.2761 72.4792 68.7914 73.2058 67.6444 72.2192Z" fill="white"/>
<path d="M41.3354 67.0625C41.2406 66.9676 41.1629 66.2547 41.1629 65.4783C41.1629 64.0691 41.1616 64.0665 40.4325 64.0665C40.0308 64.0665 38.617 64.6111 37.2908 65.2766C35.9645 65.9421 34.8293 66.4866 34.768 66.4866C34.7066 66.4866 34.623 66.0238 34.5821 65.4581C34.5249 64.6678 34.4129 64.4368 34.0988 64.4607C33.2597 64.5247 33.4383 63.8555 34.3393 63.5595C34.8312 63.3979 36.249 62.795 37.4899 62.2199C39.448 61.3123 39.7358 61.1025 39.668 60.6317C39.6223 60.3144 39.1629 59.803 38.5613 59.3998C37.3735 58.6035 37.2473 57.9725 38.1566 57.3767C38.6213 57.0722 38.9398 57.0245 39.4057 57.1896C39.9589 57.3856 40.0385 57.5597 40.0956 58.6977C40.1311 59.4053 40.3338 60.2493 40.5461 60.5733C40.9271 61.1547 41.405 61.3638 41.405 60.9491C41.405 60.7017 43.2665 60.1944 44.1743 60.1944C44.5146 60.1944 44.7931 60.2806 44.7931 60.386C44.7931 60.7836 42.555 62.734 42.4441 62.433C42.3828 62.2666 42.2328 62.1304 42.1108 62.1304C41.7545 62.1304 41.8557 63.9113 42.2435 64.4649C42.4384 64.7433 42.5482 65.0208 42.4873 65.0816C42.4265 65.1424 42.7189 65.142 43.1371 65.0806L43.8975 64.969L43.3136 66.0303C42.8966 66.7883 42.5551 67.1121 42.1188 67.1633C41.7828 67.2026 41.4302 67.1573 41.3354 67.0625Z" fill="white"/>
<path d="M28.4813 72.175C27.6417 71.3969 26.8949 69.7444 26.895 68.6648C26.8951 67.2767 27.8932 66.3871 30.9466 65.0536C32.5579 64.3499 32.782 64.3097 33.5482 64.5867C34.2239 64.8311 34.3866 65.0172 34.3866 65.5458C34.3866 66.2175 33.2193 67.4548 32.5856 67.4548C32.4141 67.4548 31.9756 67.6893 31.6112 67.976C30.9654 68.4839 30.9527 68.5418 31.1127 70.2487C31.2669 71.8943 31.2432 72.0236 30.7208 72.3896C29.934 72.9406 29.2351 72.8737 28.4813 72.175Z" fill="white"/>
<path d="M46.7071 32.1623C47.0791 31.4671 49.167 29.2169 49.4399 29.2169C49.7897 29.2169 49.4567 30.3815 48.8721 31.2024C48.1045 32.2803 46.1895 33.1294 46.7071 32.1623Z" fill="white"/>
</svg>
